<svg width="400" height="90" viewBox="0 0 400 90" fill="none" xmlns="http://www.w3.org/2000/svg">
<path d="M143.075 63.0107C141.095 65.8507 138.325 67.9707 134.775 69.3807C131.225 70.7907 127.095 71.4907 122.375 71.4907C117.605 71.4907 113.375 70.3707 109.675 68.1307C105.975 65.8907 103.115 62.7107 101.095 58.5807C99.0745 54.4507 98.0345 49.6707 97.9745 44.2307V39.1307C97.9745 30.3107 100.035 23.4807 104.145 18.6307C108.255 13.7807 114.035 11.3607 121.485 11.3607C127.595 11.3607 132.515 12.9207 136.235 16.0407C139.955 19.1607 142.235 23.5907 143.065 29.3207H135.345C133.895 21.5507 129.285 17.6607 121.515 17.6607C116.345 17.6607 112.425 19.4807 109.755 23.1107C107.085 26.7407 105.745 32.0107 105.715 38.9007V43.6907C105.715 50.2607 107.215 55.4807 110.215 59.3607C113.215 63.2407 117.275 65.1707 122.395 65.1707C125.285 65.1707 127.825 64.8507 129.995 64.2107C132.165 63.5707 133.955 62.4907 135.385 60.9607V47.8507H121.845V41.5407H143.065V63.0107H143.075Z" fill="white"/>
<path d="M181.515 47.0107H167.765V70.6808H160.005V12.1608H179.375C185.965 12.1608 191.035 13.6608 194.585 16.6608C198.135 19.6608 199.915 24.0307 199.915 29.7607C199.915 33.4007 198.925 36.5808 196.965 39.2908C194.995 42.0008 192.255 44.0207 188.745 45.3607L202.495 70.2007V70.6808H194.215L181.515 47.0107ZM167.765 40.7007H179.625C183.455 40.7007 186.505 39.7108 188.765 37.7208C191.025 35.7308 192.165 33.0808 192.165 29.7508C192.165 26.1308 191.085 23.3507 188.925 21.4207C186.765 19.4907 183.655 18.5107 179.585 18.4807H167.765V40.7007Z" fill="white"/>
<path d="M245.715 59.7508H226.385L223.005 70.6808H207.935L224.825 24.6107C227.565 17.1307 234.685 12.1608 242.655 12.1608L264.275 70.6808H249.125L245.715 59.7508ZM229.765 48.8607H242.345L236.035 28.5608L229.765 48.8607Z" fill="white"/>
<path d="M287.695 70.6808H273.625V26.2307C273.625 18.4607 279.925 12.1608 287.695 12.1608V70.6808Z" fill="white"/>
<path d="M301.615 70.6808V12.1608H320.465C325.635 12.1608 330.285 13.3308 334.415 15.6808C338.545 18.0308 341.765 21.3307 344.085 25.6107C346.405 29.8807 347.575 34.6707 347.605 39.9807V42.6707C347.605 48.0307 346.475 52.8307 344.205 57.0807C341.945 61.3307 338.755 64.6508 334.635 67.0508C330.525 69.4508 325.935 70.6608 320.865 70.6908H301.615V70.6808ZM315.725 23.0608V59.8408H320.625C324.675 59.8408 327.775 58.4008 329.955 55.5208C332.125 52.6408 333.205 48.3608 333.205 42.6808V40.1508C333.205 34.5008 332.125 30.2408 329.955 27.3708C327.785 24.5008 324.625 23.0708 320.465 23.0708H315.725V23.0608Z" fill="white"/>
<path d="M395.235 45.8408H373.045V59.8307H399.255V70.6808H358.945V12.1608H399.335V23.0508H373.045V35.3907H395.235V45.8408Z" fill="white"/>
<path d="M79.4336 44.6796C79.4336 44.6275 79.4286 44.5796 79.4246 44.5276C79.4206 44.4886 79.4156 44.445 79.4073 44.4059C79.4023 44.3711 79.3983 44.3321 79.39 44.2972C79.381 44.2451 79.3683 44.193 79.351 44.1408C79.347 44.1235 79.342 44.1018 79.3375 44.0843C79.3375 44.0793 79.3325 44.0753 79.3325 44.0708C79.3152 44.0143 79.2977 43.9621 79.276 43.9057C79.267 43.884 79.2625 43.8623 79.2543 43.8406C79.237 43.7929 79.2153 43.7493 79.1935 43.7059C79.18 43.6799 79.1675 43.6494 79.1545 43.6234C79.1372 43.5886 79.1155 43.5583 79.098 43.5278C79.0763 43.493 79.0546 43.454 79.0329 43.4193C79.0194 43.3976 79.0025 43.3803 78.9895 43.3628C78.9591 43.3194 78.9288 43.2758 78.8939 43.2324C78.8849 43.2189 78.8722 43.2107 78.8635 43.1976C78.8245 43.1499 78.7853 43.1065 78.7418 43.0629C78.7245 43.0456 78.7028 43.0281 78.6853 43.0108C78.6505 42.976 78.6115 42.9414 78.5766 42.911C78.5376 42.8762 78.4941 42.8459 78.4506 42.8154C78.4333 42.8019 78.4158 42.7894 78.3985 42.7764C78.2161 42.6504 78.0119 42.5505 77.7991 42.481C77.7941 42.481 77.7901 42.476 77.7856 42.476C77.7335 42.4587 77.6769 42.4456 77.6205 42.4326C77.5988 42.4276 77.5771 42.4191 77.5554 42.4153C77.5164 42.4063 77.4729 42.4018 77.4294 42.3936C77.3904 42.3886 77.3556 42.3801 77.3165 42.3763C77.2817 42.3713 77.2514 42.3713 77.2165 42.3673C77.1688 42.3623 77.121 42.3583 77.0731 42.3583C77.0641 42.3583 77.0596 42.3583 77.0514 42.3583C77.0254 42.3583 76.9993 42.3633 76.9733 42.3633C76.9299 42.3633 76.8822 42.3683 76.8343 42.3723C76.7909 42.3773 76.7475 42.3813 76.7039 42.3896C76.6691 42.3946 76.6345 42.3986 76.5997 42.4069C76.5476 42.4159 76.4956 42.4286 76.4434 42.4459C76.4217 42.4509 76.4043 42.4549 76.3825 42.4594L76.3435 42.4729C76.3385 42.4729 76.3385 42.4729 76.3345 42.4779L69.4886 44.4631C67.9682 42.0218 65.2663 40.3929 62.1778 40.3929C57.4169 40.3929 53.5595 44.2502 53.5595 49.0111C53.5595 49.0328 53.5645 49.0588 53.5645 49.0805L45.1939 51.5088C43.9602 49.8364 41.9837 48.7461 39.7423 48.7461C36.1629 48.7461 33.2351 51.5262 32.9919 55.0447L24.4474 57.5207C23.5526 56.6172 22.3146 56.0568 20.9463 56.0568C18.5875 56.0568 16.6197 57.7162 16.1376 59.9316L4.77828 63.2243V25.2891C4.77828 25.0024 4.93466 24.733 5.18227 24.5897L39.3166 4.88145C39.5685 4.73806 39.8769 4.73806 40.1245 4.88145L62.3001 17.6829C63.4425 18.3432 64.9021 17.9522 65.5624 16.8098C66.2226 15.6673 65.8317 14.2078 64.6892 13.5475L42.5137 0.746047C40.7891 -0.248682 38.6519 -0.248682 36.9274 0.746047L2.79313 20.4543C1.06859 21.449 0 23.3039 0 25.2934V64.7055C0 66.695 1.06859 68.5499 2.79313 69.5446L36.9274 89.2529C37.7875 89.7481 38.7562 90 39.7205 90C40.6849 90 41.6536 89.7524 42.5137 89.2529L76.648 69.5446C78.3725 68.5499 79.4411 66.695 79.4411 64.7055V44.8018V44.7978V44.7544C79.4321 44.7283 79.4321 44.7067 79.4321 44.6806L79.4336 44.6796ZM74.6553 64.7006C74.6553 64.9873 74.4989 65.2566 74.2513 65.4L40.1171 85.1082C39.8694 85.2516 39.5567 85.2516 39.3091 85.1082L8.26329 67.1853L17.5071 64.5051C18.3932 65.3695 19.6052 65.9038 20.9431 65.9038C23.2714 65.9038 25.2131 64.2879 25.7301 62.1203L34.3614 59.6182C35.5994 61.2385 37.5455 62.2854 39.7391 62.2854C43.2794 62.2854 46.1811 59.5661 46.4808 56.104L54.9254 53.6541C56.4588 56.0389 59.1303 57.6244 62.1753 57.6244C66.9188 57.6244 70.7675 53.7931 70.7936 49.0539L74.6553 47.9332V64.7006Z" fill="white"/>
</svg>
